<?xml version="1.0" standalone="no"?>
<!DOCTYPE svg PUBLIC "-//W3C//DTD SVG 20010904//EN"
 "http://www.w3.org/TR/2001/REC-SVG-20010904/DTD/svg10.dtd">
<svg version="1.0" xmlns="http://www.w3.org/2000/svg"
 width="1123.000000pt" height="1123.000000pt" viewBox="0 0 1123.000000 1123.000000"
 preserveAspectRatio="xMidYMid meet">
<metadata>
Created by potrace 1.14, written by Peter Selinger 2001-2017
</metadata>
<g transform="translate(0.000000,1123.000000) scale(0.100000,-0.100000)"
fill="#000000" stroke="none">
<path d="M1290 7223 l-32 -29 -2 -279 c-1 -200 -5 -286 -14 -302 -15 -27 -16
-169 -1 -228 12 -48 66 -118 108 -139 17 -9 30 -29 39 -57 7 -24 26 -62 41
-85 l28 -41 -79 -10 c-177 -24 -313 -138 -358 -303 -9 -33 -13 -186 -14 -555
-1 -280 0 -516 2 -522 3 -10 41 -13 146 -13 l141 0 27 -58 c35 -75 118 -161
188 -195 112 -54 154 -58 650 -60 l455 -1 3 47 3 47 256 2 257 3 0 220 1 220
38 0 37 0 0 93 c1 118 1 276 0 351 l0 59 -181 1 c-100 0 -183 2 -185 4 -2 2
-5 17 -7 33 -8 76 -74 162 -157 204 -44 22 -166 42 -220 36 -19 -2 -54 -4 -77
-5 l-43 -1 0 -217 0 -218 -177 3 c-98 2 -183 4 -188 6 -7 3 -10 53 -9 142 2
77 3 221 3 322 l1 182 223 0 c242 0 293 7 390 56 99 51 225 204 244 299 12 55
14 392 3 452 -31 183 -179 339 -365 388 -47 12 -122 15 -361 15 -166 0 -325
-5 -355 -10 -114 -22 -234 -102 -301 -200 -16 -24 -17 -18 -17 142 -1 158 -2
168 -23 192 -13 15 -37 29 -54 32 -25 5 -38 0 -64 -23z m542 -383 c10 0 18 6
18 13 0 8 4 7 10 -3 6 -8 9 -43 9 -77 -2 -61 -2 -61 -27 -52 -23 9 -24 8 -11
-8 12 -16 12 -17 -2 -6 -14 11 -31 13 -97 12 -12 0 -20 -4 -17 -9 3 -5 1 -11
-4 -14 -5 -4 -8 6 -6 20 2 22 -1 25 -19 20 -20 -5 -20 -4 -2 9 10 7 15 18 12
23 -16 27 37 72 84 72 14 0 19 4 14 13 -6 10 -4 10 7 0 7 -7 21 -13 31 -13z
m168 0 c-6 -11 -13 -20 -16 -20 -2 0 0 9 6 20 6 11 13 20 16 20 2 0 0 -9 -6
-20z m45 9 c-3 -3 3 -13 12 -20 15 -12 16 -12 10 3 -3 10 -1 20 5 24 6 4 8 3
5 -3 -4 -6 0 -13 8 -16 9 -4 12 -1 8 9 -6 15 20 16 45 1 6 -5 12 -4 12 1 0 11
121 9 139 -3 10 -5 12 -4 7 3 -5 9 9 12 49 12 40 0 54 -3 49 -12 -5 -8 -2 -9
9 -5 22 8 49 -2 40 -16 -4 -6 -1 -7 7 -2 7 4 15 4 19 -1 3 -5 15 -14 26 -20
11 -6 33 -32 49 -58 24 -38 27 -49 16 -59 -10 -9 -11 -9 -6 1 7 11 -12 18 -38
13 -5 -1 -3 5 4 14 11 13 10 15 -4 9 -9 -3 -16 -11 -16 -18 0 -6 -4 -5 -9 3
-6 9 -15 11 -27 6 -27 -12 -49 -11 -47 2 1 6 -7 19 -17 28 -11 10 -20 14 -20
10 0 -4 -10 0 -22 11 l-23 19 19 -23 c11 -12 21 -20 24 -17 3 3 11 0 18 -6 14
-12 10 -29 -7 -29 -6 0 -7 5 -3 11 4 8 -1 9 -16 4 -17 -5 -21 -4 -15 5 5 8 4
11 -3 6 -6 -3 -15 2 -21 11 -13 22 -14 8 -2 -15 7 -14 4 -17 -14 -17 -14 0
-20 4 -15 9 5 5 3 14 -5 22 -18 18 -31 18 -16 1 6 -8 8 -17 4 -20 -3 -4 -12 1
-18 10 -10 14 -10 22 2 40 9 13 13 26 9 30 -3 3 -6 1 -6 -6 0 -7 -9 -6 -26 5
-19 13 -22 19 -12 26 10 7 9 8 -4 4 -10 -3 -20 0 -24 5 -4 7 -10 7 -16 1 -14
-14 1 -35 19 -28 9 4 13 1 10 -6 -2 -7 -11 -11 -18 -9 -8 2 -18 4 -24 4 -5 0
-16 -2 -24 -4 -7 -2 -16 2 -18 9 -3 7 -1 12 4 11 20 -3 30 2 30 17 0 14 -2 14
-14 -2 -10 -13 -13 -14 -14 -3 0 11 -2 11 -6 1 -4 -10 -9 -9 -20 5 -13 17 -13
17 -4 -3 6 -12 7 -24 4 -28 -3 -3 -1 -6 7 -6 10 0 10 -3 1 -14 -9 -11 -9 -16
0 -22 8 -5 9 -3 4 7 -7 12 -6 12 7 1 14 -11 19 -9 32 10 9 12 16 20 16 16 0
-3 3 -15 7 -25 3 -10 3 -15 -2 -11 -13 12 -45 -11 -39 -27 7 -17 -11 -21 -21
-5 -5 8 -12 7 -23 -2 -12 -10 -14 -10 -8 0 4 6 5 12 2 12 -2 0 -13 3 -23 7
-16 6 -17 5 -3 -13 14 -18 14 -18 -5 -3 -11 9 -27 14 -35 12 -10 -3 -9 0 3 11
11 8 26 12 35 8 15 -5 15 -4 3 11 -14 17 -22 16 -56 -12 -18 -15 -19 -15 -6 2
12 15 11 17 -5 18 -17 1 -17 2 -1 6 9 2 15 8 12 13 -3 5 -13 7 -23 4 -10 -3
-8 0 5 8 20 12 23 16 23 36 0 5 7 9 15 9 8 0 12 -4 10 -8z m-77 -34 c-3 -3 -9
2 -12 12 -6 14 -5 15 5 6 7 -7 10 -15 7 -18z m237 15 c3 -5 1 -10 -4 -10 -6 0
-11 5 -11 10 0 6 2 10 4 10 3 0 8 -4 11 -10z m-227 -50 c7 -11 9 -20 4 -20 -4
0 -13 9 -20 20 -7 11 -9 20 -4 20 4 0 13 -9 20 -20z m277 10 c4 -6 2 -17 -5
-25 -7 -9 -8 -15 0 -20 5 -3 9 -14 9 -23 -1 -15 -2 -15 -6 1 -5 18 -15 22 -27
10 -3 -4 -16 -7 -27 -8 -13 -1 -18 3 -14 12 3 8 5 17 5 19 0 2 5 4 11 4 5 0 8
-4 4 -9 -3 -5 0 -13 6 -17 8 -5 9 -3 4 6 -5 9 -4 11 4 6 6 -4 11 -4 10 1 -4
21 2 34 13 27 7 -5 8 -3 3 6 -6 10 -11 10 -20 -4 -12 -15 -13 -15 -26 1 -8 9
-9 14 -2 10 6 -4 14 -3 18 3 8 13 32 13 40 0z m-95 -6 c0 -8 -19 -13 -24 -6
-3 5 1 9 9 9 8 0 15 -2 15 -3z m20 -34 c0 -5 -5 -10 -11 -10 -5 0 -7 5 -4 10
3 6 8 10 11 10 2 0 4 -4 4 -10z m-170 -20 c0 -5 -2 -10 -4 -10 -3 0 -8 5 -11
10 -3 6 -1 10 4 10 6 0 11 -4 11 -10z m-240 -20 c0 -5 -5 -10 -11 -10 -5 0 -7
5 -4 10 3 6 8 10 11 10 2 0 4 -4 4 -10z m-120 -25 c-7 -8 -17 -15 -23 -15 -6
0 -2 7 9 15 25 19 30 19 14 0z m-16 -33 c3 -5 -1 -9 -9 -9 -8 0 -12 4 -9 9 3
4 7 8 9 8 2 0 6 -4 9 -8z m826 -72 c0 -33 -2 -60 -5 -60 -8 0 -52 73 -60 98
-6 20 -3 22 29 22 l36 0 0 -60z m-830 30 c0 -5 -2 -10 -4 -10 -3 0 -8 5 -11
10 -3 6 -1 10 4 10 6 0 11 -4 11 -10z m957 -172 c-4 -159 -14 -198 -70 -256
-39 -41 -80 -64 -122 -66 -17 -2 -37 -6 -45 -11 -9 -5 -15 -4 -18 3 -2 7 -8
12 -13 12 -6 0 -8 -4 -5 -8 3 -5 -10 -9 -29 -9 -19 0 -35 3 -36 6 -5 37 -4 53
3 57 4 3 8 -3 9 -13 0 -11 3 -13 6 -5 6 15 -16 44 -28 36 -5 -3 -9 -1 -9 5 0
19 18 21 35 5 9 -9 18 -14 21 -12 2 3 -5 13 -16 23 -16 14 -22 15 -35 5 -9 -8
-15 -9 -15 -2 0 6 8 16 18 21 9 6 12 11 5 11 -6 0 -15 -4 -18 -10 -3 -5 -11
-10 -17 -10 -7 0 -7 4 1 13 6 8 8 17 4 20 -3 4 0 13 7 22 9 11 10 18 1 29 -6
8 -11 18 -10 22 6 36 -32 42 -69 12 -9 -7 -13 -8 -9 -2 3 6 0 11 -8 11 -12 0
-12 -4 2 -19 9 -10 18 -33 19 -51 1 -17 3 -34 4 -37 1 -3 2 -8 1 -12 0 -5 3
-8 8 -8 14 0 20 27 9 38 -10 10 -3 32 11 32 18 0 3 -64 -18 -78 -26 -17 -26
-25 -3 -48 16 -17 16 -18 -3 -11 l-20 7 20 -16 c16 -13 16 -15 3 -11 -10 3
-20 2 -23 -3 -3 -5 11 -10 32 -10 68 -1 73 -1 73 -8 0 -4 -40 -7 -89 -7 -80 0
-89 2 -86 17 2 10 6 22 9 27 3 5 -1 14 -9 21 -11 9 -14 7 -14 -12 -1 -63 -1
-64 -11 -48 -7 11 -10 11 -10 2 0 -7 -4 -11 -10 -7 -5 3 0 15 11 26 11 11 18
24 14 27 -3 4 -10 1 -14 -6 -4 -8 -14 -14 -22 -15 -8 -2 -20 -6 -27 -11 -8 -5
-19 -3 -25 3 -9 9 -7 10 8 5 l20 -7 -20 24 -20 24 20 -16 c11 -8 25 -15 32
-15 17 1 57 46 48 54 -4 4 -14 -2 -23 -13 -23 -27 -48 -26 -45 2 2 17 -1 21
-15 17 -14 -5 -14 -4 -2 4 20 15 32 4 24 -20 -5 -18 -4 -18 16 -8 11 6 24 18
27 26 4 11 9 12 19 3 11 -9 14 -9 14 0 0 20 -32 25 -45 7 -11 -14 -13 -15 -18
-1 -4 8 -3 14 1 14 17 -2 53 14 43 20 -14 9 2 32 24 35 11 2 21 8 23 14 3 11
-28 9 -46 -2 -14 -9 -33 10 -27 27 4 9 13 13 22 10 11 -4 14 -2 9 5 -5 8 -1
10 10 5 11 -4 15 -2 11 4 -4 5 -1 18 6 27 11 14 12 13 13 -9 1 -14 -3 -25 -9
-25 -15 0 0 -13 18 -16 18 -3 18 1 5 26 -7 13 -7 21 2 26 6 4 8 3 4 -4 -4 -7
1 -10 14 -9 11 1 20 5 20 9 0 4 7 8 16 8 9 0 12 5 8 13 -4 6 2 4 13 -5 23 -21
40 -24 24 -5 -8 10 -7 14 4 14 8 0 12 -4 9 -8 -6 -10 37 -6 55 5 7 4 15 6 18
3 8 -9 -7 -28 -18 -22 -5 4 -9 1 -9 -4 0 -14 17 -14 25 -1 8 12 37 9 48 -5 5
-5 5 0 2 13 -4 13 -2 22 4 22 6 0 11 -6 11 -12 0 -9 4 -8 10 2 5 8 10 12 11 8
7 -40 1 -57 -13 -37 -8 11 -9 10 -5 -2 3 -9 1 -21 -4 -26 -6 -6 -4 -10 5 -10
8 0 13 4 11 8 -3 3 2 12 9 19 8 6 13 20 11 30 -2 11 1 23 7 26 7 4 8 2 4 -4
-4 -7 -2 -12 3 -12 6 0 11 5 11 11 0 5 5 7 10 4 6 -4 7 -12 4 -18 -5 -8 -3 -8
7 1 16 15 33 16 23 0 -4 -7 -3 -8 5 -4 6 4 9 12 5 17 -3 6 5 8 20 5 14 -3 25
-2 25 2 -1 4 -1 14 0 22 1 13 2 13 11 0 5 -8 10 -10 10 -4 0 5 -5 15 -12 22
-9 9 -7 11 10 7 12 -2 25 1 28 7 4 7 2 8 -4 4 -7 -4 -12 -2 -12 3 0 11 15 15
34 12 5 -1 4 5 -4 13 -7 9 -8 16 -3 16 5 0 8 12 8 28 -1 27 3 42 11 42 2 0 3
-64 1 -142z m-946 105 c12 -16 12 -17 -2 -6 -9 7 -20 9 -24 5 -5 -4 -5 -1 -1
6 9 16 11 15 27 -5z m-11 -53 c0 -5 -5 -10 -11 -10 -5 0 -7 5 -4 10 3 6 8 10
11 10 2 0 4 -4 4 -10z m11 -33 c-10 -9 -11 -8 -5 6 3 10 9 15 12 12 3 -3 0
-11 -7 -18z m110 -35 c9 2 14 -6 13 -22 -1 -21 0 -22 9 -8 10 15 12 15 22 1
10 -13 14 -13 20 -3 5 9 4 11 -3 6 -7 -4 -12 -2 -12 3 0 6 10 9 23 7 12 -3 28
-5 35 -5 9 -1 12 -37 12 -145 0 -158 0 -159 -60 -144 -19 5 -40 10 -45 11 -30
7 -58 39 -62 69 -9 72 -9 98 -1 98 4 0 3 11 -2 25 -5 13 -6 27 -1 29 5 3 6 17
3 31 -3 20 -9 24 -26 20 -20 -6 -21 -6 -1 6 26 16 35 30 28 44 -4 5 3 2 14 -8
11 -10 27 -17 34 -15z m-122 -4 c-5 -10 -11 -18 -12 -18 -2 0 -3 8 -3 18 0 10
6 19 13 19 8 0 9 -6 2 -19z m871 8 c0 -3 -4 -8 -10 -11 -5 -3 -10 -1 -10 4 0
6 5 11 10 11 6 0 10 -2 10 -4z m-852 -32 c0 -17 -3 -22 -8 -13 -5 6 -6 18 -3
26 8 19 11 16 11 -13z m410 -14 c-15 -23 -35 -33 -43 -20 -3 5 -12 7 -19 4 -8
-3 -17 -1 -21 5 -4 7 0 8 11 4 13 -5 15 -3 9 7 -6 10 -4 11 6 4 22 -14 37 -13
50 2 17 21 21 17 7 -6z m82 14 c0 -8 -19 -13 -24 -6 -3 5 1 9 9 9 8 0 15 -2
15 -3z m-506 -46 c-3 -4 -9 -8 -15 -8 -5 0 -9 4 -9 8 0 5 7 9 15 9 8 0 12 -4
9 -9z m36 2 c0 -5 -4 -10 -10 -10 -5 0 -10 5 -10 10 0 6 5 10 10 10 6 0 10 -4
10 -10z m340 -7 c0 -5 -5 -15 -10 -23 -7 -12 -9 -10 -7 8 1 19 17 33 17 15z
m200 -2 c3 -1 -2 -6 -10 -11 -8 -5 -24 -7 -35 -4 -18 4 -18 4 -2 -6 9 -6 21
-9 26 -6 5 3 14 -1 22 -10 10 -12 9 -18 -4 -32 -11 -10 -17 -12 -17 -4 0 7 5
12 10 12 6 0 10 4 10 8 0 12 -32 11 -50 -2 -8 -5 -12 -7 -8 -2 4 5 3 17 -2 27
-11 20 11 39 39 34 9 -2 18 -4 21 -4z m-230 -5 c0 -2 -7 -7 -16 -10 -8 -3 -12
-2 -9 4 6 10 25 14 25 6z m-290 -27 c0 -6 -4 -7 -10 -4 -5 3 -10 11 -10 16 0
6 5 7 10 4 6 -3 10 -11 10 -16z m-40 -19 c0 -5 -4 -10 -10 -10 -5 0 -10 5 -10
10 0 6 5 10 10 10 6 0 10 -4 10 -10z m369 -31 c-13 -25 -26 -24 -39 1 -15 29
-4 41 25 28 20 -9 22 -14 14 -29z m-335 13 c2 -4 0 -14 -6 -22 -8 -12 -9 -12
-4 3 6 20 3 21 -27 6 -21 -10 -21 -10 -3 5 22 18 32 20 40 8z m-15 -55 c0 -9
-2 -8 -6 1 -2 6 -10 9 -15 6 -7 -4 -8 -2 -4 5 9 13 26 5 25 -12z m547 -22 c9
-14 21 -22 28 -18 8 4 8 2 -1 -7 -6 -7 -9 -20 -5 -29 5 -14 4 -14 -12 -2 -12
10 -13 16 -6 21 8 5 6 9 -5 14 -10 3 -13 11 -9 18 5 8 0 7 -11 -2 -17 -14 -18
-13 -12 5 7 20 7 20 -8 1 -8 -11 -18 -16 -22 -13 -6 7 25 36 39 37 4 0 15 -11
24 -25z m-7 -24 c2 -1 -2 -8 -9 -17 -11 -12 -11 -15 0 -12 7 2 15 -3 17 -10 4
-10 -1 -10 -19 -2 -13 6 -24 20 -25 30 -1 16 2 18 36 11z m-625 -357 c3 -8 2
-12 -4 -9 -6 3 -10 10 -10 16 0 14 7 11 14 -7z m64 -9 c-3 -3 -9 2 -12 12 -6
14 -5 15 5 6 7 -7 10 -15 7 -18z m-234 4 c-4 -8 0 -8 15 0 14 8 21 8 21 1 0
-5 6 -10 13 -10 10 0 12 -67 12 -315 1 -274 -1 -316 -15 -319 -8 -3 -58 -4
-110 -2 -52 1 -87 1 -78 -1 9 -2 20 -13 23 -23 3 -10 12 -17 18 -14 8 3 13 -4
13 -16 0 -11 -4 -20 -8 -20 -4 0 -8 5 -8 11 0 5 -5 7 -12 3 -8 -5 -5 -11 10
-17 12 -6 22 -14 22 -19 0 -11 -17 -10 -25 2 -3 6 -14 10 -23 10 -11 -1 -7 -7
13 -18 25 -14 30 -23 30 -54 0 -20 -2 -35 -5 -33 -3 2 -11 -5 -18 -16 -7 -11
-8 -19 -2 -19 5 0 10 5 10 10 0 6 4 10 8 10 5 0 9 -7 9 -15 0 -22 -30 -28 -44
-9 -7 10 -13 13 -13 8 0 -6 6 -16 13 -23 10 -10 6 -11 -17 -7 -16 3 -25 2 -21
-2 9 -10 75 -10 69 0 -3 4 0 8 6 8 7 0 10 -6 8 -12 -3 -7 -25 -14 -50 -16
l-45 -3 -1 126 c-1 69 2 123 7 121 4 -3 8 1 8 9 0 8 -4 12 -7 10 -4 -3 -8 40
-8 96 -1 76 2 98 11 92 9 -5 9 -3 1 8 -7 8 -12 46 -11 86 0 64 2 71 19 68 10
-2 18 1 18 6 0 5 -8 9 -17 7 -11 -2 -19 5 -21 17 -2 16 -1 17 7 5 9 -13 11
-13 11 3 0 9 -4 17 -10 17 -13 0 -13 37 -1 44 5 4 7 20 4 38 -3 23 0 35 13 45
11 8 13 13 5 13 -9 0 -7 10 8 33 15 23 27 31 43 29 17 -2 19 0 9 7 -11 7 -7
12 16 25 17 8 33 13 36 10 3 -3 14 -1 24 5 23 13 26 13 17 0z m214 -14 c-3 -3
-9 2 -12 12 -6 14 -5 15 5 6 7 -7 10 -15 7 -18z m66 0 c3 -8 1 -15 -4 -15 -6
0 -10 7 -10 15 0 8 2 15 4 15 2 0 6 -7 10 -15z m-87 -17 c2 -17 0 -19 -7 -8
-5 8 -6 18 -4 22 8 12 10 10 11 -14z m-14 -18 c9 -11 13 -20 7 -20 -5 0 -14 9
-20 20 -6 11 -9 20 -8 20 2 0 11 -9 21 -20z m137 16 c0 -3 -4 -8 -10 -11 -5
-3 -10 -1 -10 4 0 6 5 11 10 11 6 0 10 -2 10 -4z m-71 -26 c-6 -5 -18 -6 -26
-3 -19 8 -16 11 13 11 17 0 22 -3 13 -8z m31 -9 c-14 -27 -13 -31 8 -25 14 5
15 4 2 -5 -11 -8 -18 -7 -26 4 -6 8 -15 11 -19 7 -5 -4 -5 -1 -1 6 4 7 11 10
16 7 4 -3 10 2 14 10 3 8 8 15 11 15 3 0 1 -9 -5 -19z m-97 -21 c9 -11 13 -20
7 -20 -5 0 -14 9 -20 20 -6 11 -9 20 -8 20 2 0 11 -9 21 -20z m52 -10 c3 -6
-1 -7 -9 -4 -18 7 -21 14 -7 14 6 0 13 -4 16 -10z m-29 -24 c14 18 15 18 4 -3
-6 -13 -15 -23 -20 -23 -5 0 -14 10 -20 23 -11 21 -10 21 4 3 16 -20 16 -20
32 0z m42 0 c-10 -7 -14 -17 -10 -21 4 -5 1 -5 -7 0 -12 7 -11 10 4 22 24 17
36 17 13 -1z m67 4 c3 -6 -1 -7 -9 -4 -18 7 -21 14 -7 14 6 0 13 -4 16 -10z
m-15 -25 c0 -8 -2 -15 -4 -15 -2 0 -6 7 -10 15 -3 8 -1 15 4 15 6 0 10 -7 10
-15z m-100 -60 c0 -11 -14 7 -31 40 -7 13 -3 12 10 -5 11 -14 21 -29 21 -35z
m26 43 c4 -7 3 -8 -4 -4 -7 4 -12 2 -12 -5 0 -7 -3 -10 -6 -6 -6 5 3 27 11 27
2 0 7 -5 11 -12z m54 2 c0 -5 -7 -6 -17 -3 -12 5 -14 3 -8 -7 5 -9 4 -11 -4
-6 -6 4 -9 12 -6 17 8 12 35 12 35 -1z m-97 -50 c9 -11 13 -20 7 -20 -5 0 -14
9 -20 20 -6 11 -9 20 -8 20 2 0 11 -9 21 -20z m137 16 c0 -3 -4 -8 -10 -11 -5
-3 -10 -1 -10 4 0 6 5 11 10 11 6 0 10 -2 10 -4z m-71 -26 c-6 -5 -18 -6 -26
-3 -19 8 -16 11 13 11 17 0 22 -3 13 -8z m31 -9 c-14 -27 -13 -31 8 -25 14 5
15 4 2 -5 -11 -8 -18 -7 -26 4 -6 8 -15 11 -19 7 -5 -4 -5 -1 -1 6 4 7 11 10
16 7 4 -3 10 2 14 10 3 8 8 15 11 15 3 0 1 -9 -5 -19z m-97 -21 c9 -11 13 -20
7 -20 -5 0 -14 9 -20 20 -6 11 -9 20 -8 20 2 0 11 -9 21 -20z m52 -10 c3 -6
-1 -7 -9 -4 -18 7 -21 14 -7 14 6 0 13 -4 16 -10z m-29 -24 c14 18 15 18 4 -3
-6 -13 -15 -23 -20 -23 -5 0 -14 10 -20 23 -11 21 -10 21 4 3 16 -20 16 -20
32 0z m42 0 c-10 -7 -14 -17 -10 -21 4 -5 1 -5 -7 0 -12 7 -11 10 4 22 24 17
36 17 13 -1z m67 4 c3 -6 -1 -7 -9 -4 -18 7 -21 14 -7 14 6 0 13 -4 16 -10z
m-15 -25 c0 -8 -2 -15 -4 -15 -2 0 -6 7 -10 15 -3 8 -1 15 4 15 6 0 10 -7 10
-15z m-119 -26 c9 -17 8 -20 -2 -14 -9 6 -11 3 -6 -8 9 -24 0 -21 -14 4 -9 17
-8 20 2 14 9 -6 11 -3 6 8 -9 24 0 21 14 -4z m45 9 c4 -6 3 -8 -4 -4 -7 4 -10
-2 -9 -14 1 -15 7 -20 19 -17 10 3 22 -2 28 -11 8 -15 11 -15 20 -2 6 9 10 10
10 3 0 -19 -22 -27 -34 -12 -6 8 -20 14 -30 14 -18 0 -31 29 -20 47 7 11 12
10 20 -4z m54 2 c0 -5 -8 -7 -17 -4 -15 5 -15 3 1 -10 11 -9 15 -16 9 -16 -14
0 -34 25 -26 33 10 10 33 8 33 -3z m40 -34 c0 -3 -4 -8 -10 -11 -5 -3 -10 -1
-10 4 0 6 5 11 10 11 6 0 10 -2 10 -4z m-125 -26 c-3 -5 0 -10 7 -10 8 0 5 -5
-5 -11 -14 -8 -22 -8 -30 1 -9 8 -8 10 6 4 10 -3 17 -3 16 2 -2 14 0 24 7 24
3 0 2 -4 -1 -10z m45 -20 c0 -5 -2 -10 -4 -10 -3 0 -8 5 -11 10 -3 6 -1 10 4
10 6 0 11 -4 11 -10z m75 0 c3 -5 1 -10 -4 -10 -6 0 -11 5 -11 10 0 6 2 10 4
10 3 0 8 -4 11 -10z m905 0 c0 -5 -2 -10 -4 -10 -3 0 -8 5 -11 10 -3 6 -1 10
4 10 6 0 11 -4 11 -10z m-925 -39 c-3 -6 -15 -8 -26 -6 -15 3 -19 0 -15 -10 3
-8 1 -15 -5 -15 -6 0 -9 8 -7 18 2 10 12 17 26 16 18 -1 21 3 17 20 -5 19 -5
19 5 3 6 -9 8 -21 5 -26z m-75 19 c0 -5 -2 -10 -4 -10 -3 0 -8 5 -11 10 -3 6
-1 10 4 10 6 0 11 -4 11 -10z m980 2 c0 -5 -7 -9 -15 -9 -8 0 -12 4 -9 9 3 4
9 8 15 8 5 0 9 -4 9 -8z m-1002 -27 c-3 -3 -9 2 -12 12 -6 14 -5 15 5 6 7 -7
10 -15 7 -18z m-24 -17 c1 -15 -2 -24 -7 -21 -5 3 -7 14 -4 24 3 10 1 20 -4
23 -5 2 -4 3 2 2 7 -1 13 -14 13 -28z m1066 -2 c0 -6 -7 -3 -14 6 -7 10 -17
14 -21 10 -5 -4 -5 -1 -1 6 6 10 11 10 22 1 8 -6 14 -17 14 -23z m-1020 9 c0
-8 -4 -15 -10 -15 -5 0 -7 7 -4 15 4 8 8 15 10 15 2 0 4 -7 4 -15z m974 -1 c3
-8 2 -12 -4 -9 -6 3 -10 10 -10 16 0 14 7 11 14 -7z m-907 -29 c-9 -7 -14 -15
-10 -18 3 -4 -2 -9 -11 -13 -9 -3 -13 -11 -9 -17 4 -6 1 -7 -7 -2 -10 6 -10
11 3 20 9 7 14 15 10 18 -3 4 2 9 11 13 9 3 13 11 9 17 -4 6 -1 7 7 2 10 -6
10 -11 -3 -20z m888 16 c3 -5 2 -12 -3 -15 -5 -3 -9 1 -9 9 0 17 3 19 12 6z
m40 -11 c-3 -5 0 -10 7 -10 8 0 5 -5 -5 -11 -14 -8 -22 -8 -30 1 -9 8 -8 10 6
4 10 -3 17 -3 16 2 -2 14 0 24 7 24 3 0 2 -4 -1 -10z m-973 -7 c-6 -2 -10 -9
-7 -13 3 -5 -5 -14 -17 -20 -22 -11 -22 -10 -4 4 11 9 16 16 12 16 -4 0 -4 5
-1 10 3 6 12 10 18 9 9 0 8 -2 -1 -6z m-57 -41 c-3 -3 -11 0 -18 7 -9 10 -8
11 6 5 10 -3 15 -9 12 -12z m130 8 c3 -6 -1 -7 -9 -4 -18 7 -21 14 -7 14 6 0
13 -4 16 -10z m919 -6 c3 -8 2 -12 -4 -9 -6 3 -10 10 -10 16 0 14 7 11 14 -7z
m-998 -16 c4 -7 4 -10 -1 -6 -4 4 -14 0 -22 -10 -13 -15 -13 -15 -3 6 12 25
16 27 26 10z m64 -3 c0 -8 -2 -15 -4 -15 -2 0 -6 7 -10 15 -3 8 -1 15 4 15 6
0 10 -7 10 -15z m880 5 c0 -5 -4 -10 -10 -10 -5 0 -10 5 -10 10 0 6 5 10 10
10 6 0 10 -4 10 -10z m30 0 c0 -5 -5 -10 -11 -10 -5 0 -7 5 -4 10 3 6 8 10 11
10 2 0 4 -4 4 -10z m-1015 -10 c-3 -5 -12 -10 -18 -10 -7 0 -6 4 3 10 19 12
23 12 15 0z m85 -13 c0 -5 -7 -7 -15 -3 -9 3 -15 0 -15 -9 0 -18 -16 -20 -26
-3 -4 6 -3 8 3 5 6 -4 13 -1 16 6 6 15 37 19 37 4z m960 3 c0 -5 -4 -10 -10
-10 -5 0 -10 5 -10 10 0 6 5 10 10 10 6 0 10 -4 10 -10z m-53 -22 c-3 -8 -6
-5 -6 6 -1 11 2 17 5 13 3 -3 4 -12 1 -19z m-1007 8 c0 -3 -4 -8 -10 -11 -5
-3 -10 -1 -10 4 0 6 5 11 10 11 6 0 10 -2 10 -4z m134 -4 c3 -5 -1 -9 -9 -9
-8 0 -12 4 -9 9 3 4 7 8 9 8 2 0 6 -4 9 -8z m893 -14 c-3 -8 -6 -5 -6 6 -1 11
2 17 5 13 3 -3 4 -12 1 -19z m-994 -1 c7 3 8 2 4 -2 -10 -11 -37 -15 -37 -6 0
14 14 23 18 12 2 -6 9 -8 15 -4z m67 -6 c0 -6 -4 -12 -8 -15 -5 -3 -9 1 -9 9
0 8 4 15 9 15 4 0 8 -4 8 -9z m964 1 c3 -5 -1 -9 -9 -9 -8 0 -15 4 -15 9 0 4
4 8 9 8 6 0 12 -4 15 -8z m-1071 -17 c4 -8 3 -16 -1 -19 -4 -3 -9 4 -9 15 -2
23 3 25 10 4z m77 -10 c0 -1 -12 -2 -26 -2 -17 0 -22 2 -13 7 10 7 39 3 39 -5z
m67 9 c-3 -3 -12 -4 -19 -1 -8 3 -5 6 6 6 11 1 17 -2 13 -5z m859 -12 c-3 -3
2 -11 12 -19 16 -13 16 -14 -2 -5 -11 5 -21 17 -22 26 -1 9 2 13 8 10 5 -3 7
-8 4 -12z m39 -2 c-3 -6 4 -10 17 -11 13 0 17 -3 10 -6 -18 -7 -44 5 -37 17 3
5 8 10 11 10 3 0 2 -4 -1 -10z m-1295 -30 c0 -5 -7 -10 -16 -10 -8 0 -12 5 -9
10 3 6 10 10 16 10 5 0 9 -4 9 -10z m1420 0 c0 -5 -5 -10 -11 -10 -5 0 -7 5
-4 10 3 6 8 10 11 10 2 0 4 -4 4 -10z m120 -2 c0 -5 6 -6 13 -1 6 4 31 9 54
10 l43 3 -1 -68 c-1 -67 -1 -68 -30 -70 -23 -2 -27 1 -24 18 2 11 -1 20 -7 20
-5 0 -8 -7 -5 -15 4 -8 2 -17 -3 -20 -6 -4 -10 -1 -10 4 0 6 -5 11 -11 11 -5
0 -7 -4 -4 -10 3 -5 3 -10 -1 -10 -11 0 -33 33 -33 50 0 12 2 12 10 -2 5 -10
16 -15 25 -11 14 5 12 8 -7 19 -13 7 -20 13 -15 14 5 0 2 8 -5 17 -12 15 -12
16 3 11 9 -4 24 0 35 7 10 8 13 15 8 15 -6 0 -16 -5 -23 -12 -8 -8 -12 -9 -12
-1 0 13 -25 11 -37 -2 -4 -4 -3 -5 3 -2 6 3 11 0 11 -8 0 -8 -5 -11 -11 -8 -6
4 -4 -2 4 -12 8 -11 10 -16 3 -11 -9 5 -11 2 -6 -10 5 -14 3 -16 -11 -11 -9 4
-15 3 -11 -2 3 -5 1 -12 -4 -15 -16 -11 -37 4 -38 27 l-1 22 10 -22 c6 -13 15
-23 20 -23 5 0 4 9 -2 21 -11 19 -10 20 12 8 20 -11 21 -10 11 3 -10 11 -10
17 -1 26 9 9 9 12 1 12 -7 0 -15 -4 -18 -10 -3 -5 -11 -10 -18 -10 -6 0 -2 7
9 15 10 8 15 14 9 15 -15 0 -30 -13 -42 -35 -10 -18 -11 -17 -10 7 1 14 5 24
9 22 4 -2 9 0 13 6 3 5 15 10 26 10 11 0 18 3 15 8 -2 4 9 8 25 8 16 1 29 -3
29 -8z m-166 -41 c1 -14 -2 -23 -7 -20 -4 3 -7 12 -5 21 2 10 -3 23 -12 30
-13 12 -12 12 4 4 11 -6 20 -21 20 -35z m-91 26 c-7 -2 -19 -2 -25 0 -7 3 -2
5 12 5 14 0 19 -2 13 -5z m52 -2 c3 -5 0 -13 -6 -17 -7 -4 -9 -3 -5 4 3 6 -2
13 -11 15 -16 4 -16 5 -1 6 9 0 19 -3 23 -8z m56 -24 c-10 -9 -11 -8 -5 6 3
10 9 15 12 12 3 -3 0 -11 -7 -18z m-131 -1 c0 -8 -4 -17 -8 -20 -4 -2 -8 4 -8
15 0 10 4 19 8 19 4 0 8 -6 8 -14z m34 -1 c-4 -8 -8 -15 -10 -15 -2 0 -4 7 -4
15 0 8 4 15 10 15 5 0 7 -7 4 -15z m44 -23 c2 -7 9 -10 15 -6 7 3 4 -1 -5 -9
-10 -8 -14 -18 -10 -22 4 -5 2 -5 -5 -2 -6 4 -9 16 -6 27 4 16 2 19 -11 14 -9
-3 -16 -2 -16 4 0 14 33 8 38 -6z m-53 -12 c3 -5 2 -10 -4 -10 -5 0 -13 5 -16
10 -3 6 -2 10 4 10 5 0 13 -4 16 -10z m108 -10 c-20 -23 -20 -23 -29 -8 -4 6
-3 8 3 5 6 -4 13 0 17 8 3 8 10 15 16 15 5 0 2 -9 -7 -20z m-79 -16 c3 -8 2
-12 -4 -9 -6 3 -10 10 -10 16 0 14 7 11 14 -7z m212 -12 c1 -7 0 -8 -3 -2 -2
5 -9 10 -14 10 -6 0 -7 -4 -4 -10 3 -5 3 -10 -2 -11 -4 0 -21 -2 -38 -4 -24
-3 -27 -2 -12 6 9 6 21 8 26 5 5 -3 12 1 15 10 7 17 28 15 32 -4z m-239 -5 c2
-3 -8 -4 -22 -4 -14 0 -25 3 -25 8 0 7 38 4 47 -4z m93 -2 c0 -1 -12 -2 -26
-2 -17 0 -22 2 -13 7 10 7 39 3 39 -5z m40 3 c0 -4 -4 -8 -9 -8 -6 0 -12 4
-15 8 -3 5 1 9 9 9 8 0 15 -4 15 -9z m-105 -17 c-3 -6 3 -14 12 -20 10 -6 13
-11 8 -11 -13 0 -35 20 -35 32 0 4 5 8 11 8 5 0 8 -4 4 -9z m120 -23 c-9 -6
-19 -7 -22 -4 -4 3 -1 6 6 6 7 0 9 4 6 10 -4 6 1 7 11 3 15 -6 15 -7 -1 -15z
m-995 -23 c0 -5 -5 -3 -10 5 -5 8 -10 20 -10 25 0 6 5 3 10 -5 5 -8 10 -19 10
-25z m847 13 c-3 -8 -6 -5 -6 6 -1 11 2 17 5 13 3 -3 4 -12 1 -19z m183 7
c-10 -12 -10 -18 0 -30 7 -8 17 -15 22 -15 6 0 5 6 -2 14 -8 11 -9 20 -1 33 9
13 11 14 10 3 -3 -33 2 -37 40 -35 l39 3 -2 -51 c-1 -43 -4 -52 -21 -55 -16
-3 -17 -1 -5 7 8 6 10 11 5 11 -6 0 -16 -5 -23 -12 -9 -9 -12 -8 -12 5 0 16
10 21 38 18 6 -1 12 3 12 9 0 6 -5 8 -10 5 -6 -3 -13 1 -16 9 -4 12 -11 13
-24 6 -9 -5 -21 -6 -25 -2 -5 4 -5 2 -2 -5 4 -6 17 -9 30 -6 l22 5 -23 -17
c-12 -9 -20 -20 -17 -25 3 -4 -3 -7 -12 -5 -10 1 -24 -2 -31 -8 -7 -5 -15 -7
-19 -4 -3 4 2 9 11 13 16 6 16 8 0 25 -17 19 -10 25 19 20 5 -1 7 4 4 11 -2 7
-13 12 -23 10 -18 -2 -18 -2 -1 11 15 13 15 16 3 27 -12 9 -13 15 -3 25 16 19
33 19 17 0z m-1193 -1 c-3 -3 -12 -4 -19 -1 -8 3 -5 6 6 6 11 1 17 -2 13 -5z
m136 -35 c-4 -15 -2 -20 5 -15 6 3 13 2 16 -3 4 -5 -2 -8 -11 -7 -10 2 -18 11
-18 22 0 10 -7 25 -15 32 -13 11 -12 11 7 3 15 -8 20 -17 16 -32z m160 20 c-8
-8 -13 -7 -18 2 -5 8 -4 10 3 5 7 -4 12 -2 12 5 0 7 3 9 7 6 4 -4 2 -12 -4
-18z m320 -20 c-5 -17 -3 -20 7 -14 9 5 11 4 6 -4 -10 -16 -28 -3 -24 17 2 10
-3 23 -12 30 -13 11 -12 12 7 3 15 -8 20 -17 16 -32z m89 27 c7 4 8 2 4 -5 -9
-13 -26 -5 -25 12 0 9 2 8 6 -1 2 -6 10 -9 15 -6z m-747 -17 c-6 -32 -12 -34
-12 -4 0 14 3 25 8 25 4 0 6 -10 4 -21z m82 15 c-3 -3 -12 -4 -19 -1 -8 3 -5
6 6 6 11 1 17 -2 13 -5z m46 -1 c-7 -2 -19 -2 -25 0 -7 3 -2 5 12 5 14 0 19
-2 13 -5z m167 -9 c0 -2 -7 -4 -15 -4 -8 0 -15 4 -15 10 0 5 7 7 15 4 8 -4 15
-8 15 -10z m105 6 c3 -5 1 -10 -4 -10 -6 0 -11 5 -11 10 0 6 2 10 4 10 3 0 8
-4 11 -10z m45 0 c0 -5 -8 -10 -17 -10 -15 0 -16 2 -3 10 19 12 20 12 20 0z
m66 -2 c5 -7 3 -8 -6 -3 -10 6 -12 4 -7 -8 3 -10 2 -17 -3 -17 -11 0 -13 23
-3 33 9 9 11 9 19 -5z m51 6 c-3 -3 -12 -4 -19 -1 -8 3 -5 6 6 6 11 1 17 -2
13 -5z m46 -1 c-7 -2 -19 -2 -25 0 -7 3 -2 5 12 5 14 0 19 -2 13 -5z m110 -16
c4 3 7 4 7 0 0 -18 -21 -14 -30 5 -10 21 -10 21 3 6 8 -10 17 -15 20 -11z m84
9 c0 -8 -6 -12 -15 -9 -11 5 -11 7 0 14 7 5 13 9 14 9 0 0 1 -6 1 -14z m237
-2 c3 -8 2 -12 -4 -9 -6 3 -10 10 -10 16 0 14 7 11 14 -7z m41 6 c3 -5 1 -10
-4 -10 -6 0 -11 5 -11 10 0 6 2 10 4 10 3 0 8 -4 11 -10z m45 0 c0 -5 -8 -10
-17 -10 -15 0 -16 2 -3 10 19 12 20 12 20 0z m-1155 -18 c-3 -3 -11 0 -18 7
-9 10 -8 11 6 5 10 -3 15 -9 12 -12z m255 3 c0 -8 -4 -15 -10 -15 -5 0 -7 7
-4 15 4 8 8 15 10 15 2 0 4 -7 4 -15z m34 0 c3 -8 1 -15 -4 -15 -6 0 -10 7
-10 15 0 8 2 15 4 15 2 0 6 -7 10 -15z m206 0 c0 -8 -4 -15 -10 -15 -5 0 -7 7
-4 15 4 8 8 15 10 15 2 0 4 -7 4 -15z m677 -17 c-3 -7 -5 -2 -5 12 0 14 2 19
5 13 2 -7 2 -19 0 -25z m-1077 9 c0 -8 -3 -16 -6 -20 -8 -8 -34 3 -34 15 0 6
8 4 17 -3 15 -12 16 -12 10 4 -3 9 -2 17 3 17 6 0 10 -6 10 -13z m34 -2 c-4
-8 -8 -15 -10 -15 -2 0 -4 7 -4 15 0 8 4 15 10 15 5 0 7 -7 4 -15z m46 5 c0
-5 -2 -10 -4 -10 -3 0 -8 5 -11 10 -3 6 -1 10 4 10 6 0 11 -4 11 -10z m226 -4
c3 -8 13 -12 24 -9 21 6 36 -12 19 -23 -8 -5 -9 -3 -4 6 6 10 3 12 -13 8 -15
-4 -25 0 -32 10 -8 14 -11 15 -19 3 -10 -15 -63 -23 -54 -8 3 5 13 7 23 4 11
-3 21 1 24 9 3 8 10 14 16 14 6 0 13 -6 16 -14z m174 0 c0 -20 -17 -29 -26
-15 -5 8 -3 9 6 4 10 -6 12 -4 7 8 -3 10 -2 17 3 17 6 0 10 -6 10 -14z m34 -1
c-4 -8 -8 -15 -10 -15 -2 0 -4 7 -4 15 0 8 4 15 10 15 5 0 7 -7 4 -15z m46 5
c0 -5 -2 -10 -4 -10 -3 0 -8 5 -11 10 -3 6 -1 10 4 10 6 0 11 -4 11 -10z m155
-8 c-3 -3 -11 0 -18 7 -9 10 -8 11 6 5 10 -3 15 -9 12 -12z m240 -2 c-3 -4 2
-10 10 -14 8 -3 15 -10 15 -16 0 -15 -34 19 -36 36 -1 8 2 12 7 8 5 -3 7 -9 4
-14z m185 12 c0 -5 -7 -9 -15 -9 -8 0 -15 4 -15 9 0 4 7 8 15 8 8 0 15 -4 15
-8z m-465 -12 c-3 -5 2 -10 11 -10 10 0 15 -3 11 -6 -10 -10 -39 5 -32 16 3 5
8 10 11 10 3 0 2 -4 -1 -10z m320 0 c-3 -5 -1 -10 6 -10 7 0 10 -3 6 -6 -9 -9
-28 6 -22 17 4 5 8 9 11 9 3 0 2 -4 -1 -10z m-1107 -25 c-3 -3 -9 2 -12 12 -6
14 -5 15 5 6 7 -7 10 -15 7 -18z m172 15 c0 -5 -4 -10 -10 -10 -5 0 -10 5 -10
10 0 6 5 10 10 10 6 0 10 -4 10 -10z m480 0 c0 -5 -4 -10 -10 -10 -5 0 -10 5
-10 10 0 6 5 10 10 10 6 0 10 -4 10 -10z m116 -17 c-3 -3 2 -12 12 -20 15 -13
14 -13 -6 -3 -13 7 -21 14 -18 17 3 3 -2 12 -12 20 -15 13 -14 13 6 3 13 -7
21 -14 18 -17z m104 23 c0 -3 -4 -8 -10 -11 -5 -3 -10 -1 -10 4 0 6 5 11 10
11 6 0 10 -2 10 -4z m300 -6 c0 -5 -7 -7 -15 -4 -8 4 -15 8 -15 10 0 2 7 4 15
4 8 0 15 -4 15 -10z m40 3 c0 -5 -9 -19 -19 -32 -14 -18 -20 -21 -26 -11 -5 8
-4 11 2 7 5 -4 16 5 23 18 14 25 20 31 20 18z m-1008 -17 c7 4 8 2 4 -5 -4 -6
-12 -8 -18 -5 -8 5 -9 1 -4 -12 5 -14 4 -16 -4 -8 -6 6 -7 19 -3 29 4 11 8 14
11 7 2 -7 9 -9 14 -6z m91 7 c-7 -2 -19 -2 -25 0 -7 3 -2 5 12 5 14 0 19 -2
13 -5z m237 -3 c-13 -8 -12 -11 5 -25 20 -16 19 -16 -2 -5 -30 14 -29 40 1 40
6 0 4 -5 -4 -10z m152 -4 c7 4 8 2 4 -5 -4 -6 -12 -8 -18 -5 -8 5 -9 1 -4 -12
5 -14 4 -16 -4 -8 -6 6 -7 19 -3 29 4 11 8 14 11 7 2 -7 9 -9 14 -6z m171 -7
c5 -3 2 -9 -5 -12 -9 -3 -14 3 -15 15 -1 11 1 16 5 12 4 -5 11 -12 15 -15z
m-803 -10 c17 -13 18 -17 5 -10 -33 17 -51 31 -40 31 6 0 21 -10 35 -21z m25
11 c3 -6 -1 -7 -9 -4 -18 7 -21 14 -7 14 6 0 13 -4 16 -10z m68 -21 c-8 -8
-13 -7 -18 2 -6 8 -4 10 5 4 10 -6 12 -4 6 11 -6 15 -5 17 5 7 9 -10 10 -16 2
-24z m247 6 c0 -2 -6 -7 -12 -11 -7 -4 -10 -4 -6 1 4 4 0 14 -10 22 -15 13
-15 13 6 3 12 -6 22 -13 22 -15z m30 5 c6 -11 9 -20 8 -20 -2 0 -11 9 -21 20
-9 11 -13 20 -7 20 5 0 14 -9 20 -20z m203 -11 c-8 -8 -13 -7 -18 2 -6 8 -4
10 5 4 10 -6 12 -4 6 11 -6 15 -5 17 5 7 9 -10 10 -16 2 -24z m104 24 c-4 -3
1 -12 11 -20 16 -12 16 -13 -2 -6 -14 5 -17 3 -11 -6 6 -10 3 -11 -14 -2 -24
13 -28 23 -6 14 9 -3 15 -2 14 3 -2 15 1 24 8 24 3 0 3 -3 0 -7z m419 -10 c-2
-9 -8 -19 -14 -21 -7 -2 -10 -9 -6 -15 3 -7 -1 -4 -9 5 -8 10 -18 14 -22 10
-5 -4 -5 -2 -2 5 4 6 16 9 27 6 16 -4 19 -2 14 11 -3 9 -2 16 4 16 6 0 9 -8 8
-17z m94 7 c0 -5 -4 -10 -10 -10 -5 0 -10 5 -10 10 0 6 5 10 10 10 6 0 10 -4
10 -10z m-1135 -21 c-4 -5 -12 -9 -18 -8 -9 0 -8 2 1 6 6 2 9 10 6 15 -4 7 -2
8 5 4 6 -4 9 -12 6 -17z m165 -4 c0 -2 -7 -1 -17 2 -11 5 -14 3 -8 -6 6 -10 3
-11 -14 -2 -25 14 -28 23 -4 14 11 -5 14 -3 8 6 -6 10 -3 11 14 2 11 -7 21
-14 21 -16z m40 -1 c0 -2 -9 0 -20 6 -11 6 -20 13 -20 16 0 2 9 0 20 -6 11 -6
20 -13 20 -16z m200 1 c0 -2 -7 -1 -17 2 -11 5 -14 3 -8 -6 6 -10 3 -11 -14
-2 -25 14 -28 23 -4 14 11 -5 14 -3 8 6 -6 10 -3 11 14 2 11 -7 21 -14 21 -16z
m75 4 c-4 -5 -12 -9 -18 -8 -9 0 -8 2 1 6 6 2 9 10 6 15 -4 7 -2 8 5 4 6 -4 9
-12 6 -17z m225 11 c0 -5 -2 -10 -4 -10 -3 0 -8 5 -11 10 -3 6 -1 10 4 10 6 0
11 -4 11 -10z m-785 -10 c3 -6 -1 -7 -9 -4 -18 7 -21 14 -7 14 6 0 13 -4 16
-10z m320 0 c-3 -5 -12 -10 -18 -10 -7 0 -6 4 3 10 19 12 23 12 15 0z m851
-21 c-14 -21 -71 -36 -59 -16 3 5 13 7 23 4 12 -3 22 4 31 19 7 13 14 22 17
20 2 -3 -3 -15 -12 -27z m-112 5 c3 -8 2 -12 -4 -9 -6 3 -10 10 -10 16 0 14 7
11 14 -7z m166 -6 c0 -4 -7 -8 -15 -8 -8 0 -15 4 -15 8 0 5 7 9 15 9 8 0 15
-4 15 -9z m-185 -7 c3 -5 2 -12 -3 -15 -5 -3 -9 1 -9 9 0 17 3 19 12 6z m40
-11 c-3 -5 0 -10 7 -10 8 0 5 -5 -5 -11 -14 -8 -22 -8 -30 1 -9 8 -8 10 6 4
10 -3 17 -3 16 2 -2 14 0 24 7 24 3 0 2 -4 -1 -10z m96 -21 c-5 -13 -10 -19
-10 -12 -1 15 10 45 15 40 3 -2 0 -15 -5 -28z m-38 -3 c4 -10 1 -13 -8 -9 -8
3 -12 9 -9 14 7 12 11 11 17 -5z m81 6 c2 -4 0 -14 -6 -22 -8 -12 -9 -12 -5 2
3 9 1 19 -6 22 -9 3 -9 5 0 5 6 1 14 -3 17 -7z m30 -17 c-9 -14 -19 -23 -22
-20 -5 4 26 45 35 45 2 0 -4 -11 -13 -25z m-144 -5 c0 -5 -4 -10 -10 -10 -5 0
-10 5 -10 10 0 6 5 10 10 10 6 0 10 -4 10 -10z m-60 -20 c0 -5 -4 -10 -10 -10
-5 0 -10 5 -10 10 0 6 5 10 10 10 6 0 10 -4 10 -10z m30 0 c0 -5 -5 -10 -11
-10 -5 0 -7 5 -4 10 3 6 8 10 11 10 2 0 4 -4 4 -10z m60 6 c0 -3 -4 -8 -10
-11 -5 -3 -10 -1 -10 4 0 6 5 11 10 11 6 0 10 -2 10 -4z m30 -6 c0 -5 -4 -10
-10 -10 -5 0 -10 5 -10 10 0 6 5 10 10 10 6 0 10 -4 10 -10z m-340 -20 c0 -11
6 -20 13 -21 10 0 10 -2 0 -6 -7 -2 -13 -13 -13 -24 0 -10 6 -19 13 -20 10 0
10 -2 0 -6 -7 -2 -13 -12 -13 -21 0 -15 2 -15 10 -2 5 8 10 10 10 4 0 -17 -25
-35 -50 -37 -20 -1 -20 -2 -4 -14 20 -15 40 -11 37 6 -2 6 2 11 8 11 6 0 9 -8
7 -17 -3 -14 -15 -18 -59 -20 -49 -1 -58 2 -68 20 l-12 22 5 -22 c3 -19 0 -23
-20 -23 -13 0 -24 5 -24 10 0 6 -7 10 -16 10 -8 0 -13 4 -10 8 2 4 -7 9 -22
10 l-27 2 30 -16 c41 -21 44 -27 15 -22 -14 1 -28 8 -32 13 -5 6 -8 5 -8 -2 0
-7 -7 -13 -15 -13 -8 0 -15 6 -15 13 0 8 -2 9 -8 1 -10 -16 -124 -16 -115 0 3
6 0 6 -8 -1 -14 -14 -49 -18 -49 -5 0 4 5 13 12 20 9 9 9 12 0 12 -7 0 -12 -4
-12 -10 0 -5 -5 -10 -11 -10 -5 0 -7 6 -3 13 4 6 4 9 -1 5 -4 -4 -14 -3 -21 3
-8 7 -14 6 -20 -2 -4 -7 -3 -10 2 -7 5 3 17 -2 27 -12 17 -17 12 -18 -105 -18
-119 -1 -188 10 -188 29 0 5 -3 8 -7 8 -21 -3 -33 2 -33 16 0 8 -4 15 -8 15
-9 0 -32 59 -32 84 0 9 -4 14 -10 11 -5 -3 -7 0 -4 9 5 13 65 15 430 15 417 1
424 0 424 -19z m445 11 c3 -5 1 -12 -4 -15 -4 -3 -8 -17 -8 -31 0 -25 0 -25
20 -8 12 10 17 12 12 4 -6 -10 -4 -12 5 -6 8 5 11 4 7 -2 -3 -5 3 -9 15 -8 11
1 25 9 30 19 9 16 7 16 -10 7 -27 -15 -30 -14 -28 7 0 9 -4 16 -10 15 -6 -1
-11 3 -11 10 0 7 16 12 38 12 l37 1 -1 -42 -1 -41 -62 1 c-35 1 -66 5 -71 10
-4 5 -3 6 5 2 13 -8 15 0 14 47 -1 27 11 36 23 18z m-165 -11 c0 -5 -4 -10
-10 -10 -5 0 -10 5 -10 10 0 6 5 10 10 10 6 0 10 -4 10 -10z m121 -13 c-10 -9
-11 -8 -5 6 3 10 9 15 12 12 3 -3 0 -11 -7 -18z m-162 -29 c1 -5 -3 -8 -7 -8
-4 0 -8 12 -9 28 -1 23 -1 24 7 7 5 -11 9 -23 9 -27z m121 21 c0 -6 -4 -7 -10
-4 -5 3 -10 11 -10 16 0 6 5 7 10 4 6 -3 10 -11 10 -16z m-60 1 c-8 -5 -19
-10 -25 -10 -5 0 -3 5 5 10 8 5 20 10 25 10 6 0 3 -5 -5 -10z m160 0 c0 -5 -4
-10 -10 -10 -5 0 -10 5 -10 10 0 6 5 10 10 10 6 0 10 -4 10 -10z m-140 -20 c0
-5 -4 -10 -10 -10 -5 0 -10 5 -10 10 0 6 5 10 10 10 6 0 10 -4 10 -10z m83 3
c-7 -2 -19 -2 -25 0 -7 3 -2 5 12 5 14 0 19 -2 13 -5z m-128 -23 c3 -6 -1 -7
-9 -4 -18 7 -21 14 -7 14 6 0 13 -4 16 -10z m105 6 c0 -3 -4 -8 -10 -11 -5 -3
-10 -1 -10 4 0 6 5 11 10 11 6 0 10 -2 10 -4z"/>
<path d="M2311 6837 c-8 -10 -7 -14 2 -14 8 0 14 6 14 14 0 7 -1 13 -2 13 -2
0 -8 -6 -14 -13z"/>
<path d="M2024 6811 c0 -25 2 -28 17 -21 12 7 21 4 33 -9 9 -10 13 -21 9 -25
-4 -4 1 -4 11 0 15 6 17 4 11 -7 -4 -8 -5 -11 0 -7 4 4 13 3 20 -2 8 -7 12 -5
12 5 0 8 -4 12 -8 10 -10 -7 -24 17 -24 40 1 25 -15 37 -31 24 -7 -6 -16 -4
-24 6 -19 22 -26 18 -26 -14z m72 -19 c1 -7 0 -8 -3 -2 -2 5 -9 8 -14 4 -5 -3
-9 0 -9 6 0 15 23 7 26 -8z"/>
<path d="M2250 6830 c0 -5 5 -10 10 -10 6 0 10 5 10 10 0 6 -4 10 -10 10 -5 0
-10 -4 -10 -10z"/>
<path d="M2295 6781 c-3 -5 0 -13 6 -17 8 -5 9 -3 4 6 -6 10 -4 12 9 7 10 -4
15 -3 11 3 -8 13 -22 13 -30 1z"/>
<path d="M2436 6725 c4 -8 8 -15 10 -15 2 0 4 7 4 15 0 8 -4 15 -10 15 -5 0
-7 -7 -4 -15z"/>
<path d="M2154 6364 c-18 -15 -18 -15 2 -5 12 6 25 7 29 3 5 -4 5 -1 1 6 -9
15 -8 15 -32 -4z"/>
<path d="M2226 6372 c-7 -12 12 -38 21 -29 4 5 1 12 -6 16 -11 7 -11 10 0 14
9 3 10 6 2 6 -6 1 -14 -3 -17 -7z"/>
<path d="M2290 6350 c0 -5 5 -10 10 -10 6 0 10 5 10 10 0 6 -4 10 -10 10 -5 0
-10 -4 -10 -10z"/>
<path d="M2395 6351 c-3 -5 -2 -12 3 -15 5 -3 9 1 9 9 0 17 -3 19 -12 6z"/>
<path d="M2255 6330 c-3 -6 -11 -8 -16 -5 -5 4 -9 1 -9 -4 0 -14 6 -14 32 0
18 10 20 9 15 -5 -3 -8 -2 -18 2 -20 5 -3 8 4 7 16 -1 24 -20 35 -31 18z"/>
<path d="M2037 6323 c-9 -2 -15 -9 -12 -14 4 -5 13 -5 24 1 10 5 22 6 26 2 5
-4 5 -1 1 6 -7 12 -9 13 -39 5z"/>
<path d="M2096 6308 c3 -5 10 -6 15 -3 5 3 6 -1 3 -9 -3 -9 -9 -15 -12 -14 -4
0 -10 -1 -14 -2 -5 -1 -14 -3 -20 -4 -7 0 -13 -12 -13 -25 0 -16 8 -26 25 -32
24 -9 24 -8 6 6 -13 10 -15 15 -6 15 9 0 8 5 -6 16 -10 8 -13 12 -5 8 7 -3 17
-1 21 6 5 9 9 9 14 1 4 -6 2 -11 -4 -11 -6 0 -9 -4 -5 -10 3 -5 13 -6 23 -3
13 4 13 2 -3 -10 -11 -9 -15 -17 -10 -17 6 0 11 -20 11 -44 0 -33 -4 -42 -14
-38 -10 3 -11 7 -2 12 9 6 9 9 -1 12 -12 4 -11 8 1 23 14 17 13 17 -10 11 -19
-6 -21 -5 -10 3 9 7 10 11 3 11 -19 0 -26 -20 -12 -36 17 -21 20 -44 6 -44 -5
0 -7 -3 -3 -7 10 -10 56 -12 50 -2 -2 4 0 10 5 13 5 3 7 15 4 26 -3 11 -2 28
3 37 10 24 11 36 5 48 -3 6 -6 21 -7 35 -2 38 -3 39 -23 37 -11 0 -17 -5 -15
-9z m40 -83 c-1 -8 -5 -17 -8 -21 -5 -4 -4 16 1 34 3 9 9 -1 7 -13z"/>
<path d="M2250 6292 c0 -5 11 -15 25 -22 13 -7 22 -18 18 -23 -3 -6 -1 -7 5
-3 17 10 16 12 -18 36 -16 12 -30 17 -30 12z"/>
<path d="M2325 6289 c-4 -6 -5 -12 -2 -15 2 -3 7 2 10 11 7 17 1 20 -8 4z"/>
<path d="M2416 6292 c-3 -5 1 -9 9 -9 8 0 12 4 9 9 -3 4 -7 8 -9 8 -2 0 -6 -4
-9 -8z"/>
<path d="M2375 6280 c-4 -6 -10 -8 -15 -5 -4 3 -14 -3 -21 -13 -12 -15 -12
-16 1 -6 8 6 22 10 31 9 9 -2 16 4 16 11 0 17 -4 18 -12 4z"/>
<path d="M2230 6259 c0 -5 4 -8 9 -4 5 3 12 1 16 -5 3 -5 12 -10 18 -10 7 0 3
7 -7 15 -23 18 -36 19 -36 4z"/>
<path d="M2278 6223 c7 -3 16 -2 19 1 4 3 -2 6 -13 5 -11 0 -14 -3 -6 -6z"/>
<path d="M2314 6205 c3 -23 12 -26 13 -5 1 11 -2 20 -7 20 -4 0 -7 -7 -6 -15z"/>
<path d="M2373 6185 c0 -8 4 -12 9 -9 4 3 8 9 8 15 0 5 -4 9 -8 9 -5 0 -9 -7
-9 -15z"/>
<path d="M2283 6155 c0 -8 4 -12 9 -9 5 3 6 10 3 15 -9 13 -12 11 -12 -6z"/>
<path d="M2280 6130 c-23 -7 -23 -8 -3 -9 12 -1 25 4 28 9 3 6 5 10 3 9 -2 -1
-14 -5 -28 -9z"/>
<path d="M1710 6421 c0 -5 5 -13 10 -16 6 -3 10 -2 10 4 0 5 -4 13 -10 16 -5
3 -10 2 -10 -4z"/>
<path d="M1984 6274 c3 -8 6 -18 6 -20 0 -2 5 -4 10 -4 16 0 11 27 -6 34 -12
5 -15 2 -10 -10z"/>
<path d="M1292 5756 c4 -5 0 -15 -10 -22 -20 -15 -8 -32 28 -39 12 -2 20 -2
16 2 -3 3 0 13 7 21 10 13 9 14 -3 7 -19 -12 -50 -14 -50 -3 0 4 5 9 10 9 6 1
14 2 19 3 5 0 13 6 18 11 4 6 4 7 -1 3 -5 -4 -16 -2 -25 4 -9 7 -13 8 -9 4z"/>
<path d="M1257 5674 c-10 -10 5 -34 22 -34 14 -1 13 -3 -3 -15 -11 -8 -15 -15
-9 -15 7 0 15 5 18 10 3 6 11 10 17 10 6 0 3 -9 -6 -19 -11 -12 -25 -17 -34
-14 -14 5 -15 3 -5 -7 10 -11 16 -10 33 5 24 22 27 9 3 -17 -16 -18 -16 -18 3
-12 17 7 17 6 5 -9 -7 -9 -17 -14 -22 -11 -5 3 -9 0 -9 -6 0 -7 6 -10 14 -7
10 4 14 0 13 -13 -1 -11 -7 -22 -14 -24 -16 -7 -12 -55 7 -66 12 -7 10 -11
-10 -19 -24 -9 -24 -10 -3 -10 13 -1 22 -4 22 -8 -3 -20 2 -34 11 -28 6 3 10
-1 10 -10 0 -10 -5 -13 -12 -9 -7 5 -8 3 -4 -5 5 -7 0 -21 -11 -33 -10 -12
-12 -18 -4 -13 11 6 13 4 8 -8 -8 -21 2 -49 14 -41 5 3 9 -2 9 -11 0 -9 -3
-14 -8 -11 -4 2 -16 -2 -27 -10 -10 -8 -14 -14 -8 -14 7 0 15 5 19 11 4 8 11
4 19 -11 12 -22 13 -21 13 18 1 30 -3 42 -14 42 -8 0 -14 5 -14 10 0 6 8 10
18 10 16 1 16 1 -1 11 -9 6 -15 15 -11 21 4 7 9 6 14 -2 4 -7 8 8 7 33 0 29
-4 44 -12 41 -6 -3 -11 5 -12 17 -2 18 0 19 14 7 11 -8 14 -8 10 -1 -4 6 -3
14 3 18 7 4 7 12 0 26 -8 14 -7 19 2 19 9 0 9 3 -2 9 -8 6 -17 8 -21 5 -4 -2
-7 5 -6 16 1 11 7 20 13 20 6 0 11 13 10 29 0 16 -4 27 -8 25 -5 -3 -8 0 -8 5
0 6 5 11 11 11 8 0 7 6 -2 17 -12 15 -12 16 6 10 19 -7 19 -6 2 7 -12 9 -14
16 -8 21 23 14 10 32 -23 33 -18 1 -36 -1 -39 -4z m60 -18 c-5 -16 -22 -17
-42 -2 -19 14 -18 15 12 13 18 -1 32 -6 30 -11z m0 -111 c0 -8 -4 -12 -9 -9
-5 3 -6 10 -3 15 9 13 12 11 12 -6z m-22 -65 c3 -5 1 -10 -4 -10 -6 0 -11 5
-11 10 0 6 2 10 4 10 3 0 8 -4 11 -10z m22 -12 c0 -7 2 -18 4 -24 2 -7 0 -12
-6 -12 -5 0 -9 4 -8 9 2 4 -4 6 -12 3 -21 -8 -19 6 3 22 9 7 17 14 18 14 0 0
1 -6 1 -12z"/>
<path d="M1250 5435 c0 -8 4 -15 10 -15 5 0 7 7 4 15 -4 8 -8 15 -10 15 -2 0
-4 -7 -4 -15z"/>
<path d="M1247 5389 c7 -7 15 -10 18 -7 3 3 -2 9 -12 12 -14 6 -15 5 -6 -5z"/>
<path d="M1270 5360 c0 -5 5 -10 10 -10 6 0 10 5 10 10 0 6 -4 10 -10 10 -5 0
-10 -4 -10 -10z"/>
<path d="M1272 5324 c-7 -8 -8 -14 -3 -14 10 0 25 19 20 25 -2 1 -10 -3 -17
-11z"/>
<path d="M1241 5303 c-1 -17 16 -25 25 -12 4 7 3 9 -4 5 -5 -3 -13 0 -15 6 -4
9 -6 10 -6 1z"/>
<path d="M1240 5256 c0 -2 7 -7 16 -10 8 -3 12 -2 9 4 -6 10 -25 14 -25 6z"/>
<path d="M1265 5228 l-20 -21 23 12 c12 6 22 16 22 21 0 13 -2 12 -25 -12z"/>
<path d="M1247 5189 c7 -7 15 -10 18 -7 3 3 -2 9 -12 12 -14 6 -15 5 -6 -5z"/>
<path d="M1295 5190 c-3 -5 -1 -10 4 -10 6 0 11 5 11 10 0 6 -2 10 -4 10 -3 0
-8 -4 -11 -10z"/>
<path d="M1272 5126 c7 -8 15 -12 17 -11 5 6 -10 25 -20 25 -5 0 -4 -6 3 -14z"/>
<path d="M1250 5109 c0 -5 5 -7 10 -4 6 3 10 8 10 11 0 2 -4 4 -10 4 -5 0 -10
-5 -10 -11z"/>
<path d="M1246 5073 c-8 -20 9 -40 19 -22 6 8 4 10 -5 4 -9 -5 -10 -2 -5 14 8
25 0 29 -9 4z"/>
<path d="M1266 5035 c-11 -8 -15 -15 -9 -15 7 0 15 5 18 10 3 6 11 10 17 10 6
0 4 -8 -5 -18 -24 -26 -21 -36 3 -12 32 32 12 52 -24 25z"/>
<path d="M1301 5001 c-8 -5 -9 -11 -3 -15 5 -3 12 1 16 9 6 17 6 18 -13 6z"/>
<path d="M2916 5125 c-9 -26 -7 -32 5 -12 6 10 9 21 6 23 -2 3 -7 -2 -11 -11z"/>
<path d="M2885 5090 c3 -5 11 -10 16 -10 6 0 7 5 4 10 -3 6 -11 10 -16 10 -6
0 -7 -4 -4 -10z"/>
<path d="M2835 4939 c-4 -6 -14 -8 -24 -5 -12 5 -12 3 3 -9 13 -10 24 -11 37
-5 12 7 20 7 24 0 3 -5 12 -10 18 -9 9 0 8 2 -1 6 -6 2 -9 10 -5 16 3 7 3 9
-2 5 -4 -4 -16 -3 -26 2 -12 7 -20 6 -24 -1z"/>
<path d="M2790 4890 c0 -16 28 -32 35 -20 4 6 4 14 1 18 -10 9 -36 11 -36 2z"/>
<path d="M1957 4631 c-4 -17 -3 -21 5 -13 5 5 8 16 6 23 -3 8 -7 3 -11 -10z"/>
<path d="M1995 4640 c-3 -5 -1 -10 4 -10 6 0 11 5 11 10 0 6 -2 10 -4 10 -3 0
-8 -4 -11 -10z"/>
<path d="M2223 4635 c-3 -9 -3 -18 -1 -21 3 -3 8 4 11 16 6 23 -1 27 -10 5z"/>
<path d="M1645 4630 c-3 -5 -1 -10 4 -10 6 0 11 5 11 10 0 6 -2 10 -4 10 -3 0
-8 -4 -11 -10z"/>
<path d="M1676 4632 c5 -4 12 -11 15 -15 3 -5 9 -2 12 5 3 9 -3 14 -15 15 -11
1 -16 -1 -12 -5z"/>
<path d="M1716 4623 c-6 -14 -5 -15 5 -6 7 7 10 15 7 18 -3 3 -9 -2 -12 -12z"/>
<path d="M1790 4628 c0 -4 7 -8 15 -8 8 0 15 4 15 8 0 5 -7 9 -15 9 -8 0 -15
-4 -15 -9z"/>
<path d="M1833 4625 c0 -6 10 -11 21 -12 12 -1 15 1 8 4 -6 3 -10 8 -8 12 3 4
-1 8 -8 8 -7 0 -13 -5 -13 -12z"/>
<path d="M2020 4625 c-7 -9 -8 -15 -2 -15 5 0 12 7 16 15 3 8 4 15 2 15 -2 0
-9 -7 -16 -15z"/>
<path d="M2046 4624 c-5 -14 -4 -15 9 -4 17 14 19 20 6 20 -5 0 -12 -7 -15
-16z"/>
<path d="M2080 4625 c-7 -9 -8 -15 -2 -15 5 0 12 7 16 15 3 8 4 15 2 15 -2 0
-9 -7 -16 -15z"/>
<path d="M2116 4627 c3 -10 9 -15 12 -12 3 3 0 11 -7 18 -10 9 -11 8 -5 -6z"/>
<path d="M2292 4624 c-7 -8 -8 -14 -3 -14 10 0 25 19 20 25 -2 1 -10 -3 -17
-11z"/>
<path d="M1748 4613 c6 -2 18 -2 25 0 6 3 1 5 -13 5 -14 0 -19 -2 -12 -5z"/>
<path d="M2876 4763 c-6 -14 -5 -15 5 -6 7 7 10 15 7 18 -3 3 -9 -2 -12 -12z"/>
<path d="M6183 5595 c-114 -31 -200 -93 -244 -176 -21 -39 -24 -58 -24 -154 0
-100 2 -114 27 -160 47 -88 137 -140 344 -199 177 -50 214 -74 214 -141 0 -66
-56 -105 -149 -105 -90 0 -191 42 -292 121 -20 16 -41 29 -46 29 -9 0 -153
-172 -153 -183 0 -13 131 -103 195 -133 100 -48 174 -64 290 -64 198 0 328 68
395 206 34 70 35 206 1 282 -41 92 -154 170 -301 207 -124 31 -217 66 -240 90
-24 26 -29 79 -11 114 44 80 248 63 392 -35 28 -19 54 -34 58 -34 3 0 1 4 -6
8 -8 5 6 33 47 92 33 47 59 90 60 96 0 16 -63 58 -140 93 -127 57 -304 76
-417 46z"/>
<path d="M3450 5582 c-7 -3 -10 -203 -10 -574 l0 -570 288 5 c231 3 299 8 347
21 199 57 323 178 381 372 25 83 25 277 0 359 -53 176 -165 292 -338 349 -40
13 -100 28 -132 32 -59 7 -517 12 -536 6z m512 -236 c82 -18 118 -36 167 -85
59 -59 84 -135 84 -252 0 -83 -4 -105 -27 -155 -35 -77 -74 -116 -150 -150
-55 -25 -74 -28 -198 -32 l-138 -4 0 346 0 346 98 0 c53 0 127 -7 164 -14z"/>
<path d="M4699 5579 c-5 -3 -8 -237 -7 -570 l3 -564 280 0 c236 0 290 3 345
18 268 73 411 265 411 553 0 295 -156 491 -436 549 -61 13 -140 17 -333 18
-140 1 -258 -1 -263 -4z m572 -248 c75 -28 132 -80 166 -149 26 -52 28 -67 28
-168 0 -107 -1 -113 -35 -179 -26 -52 -47 -76 -83 -101 -69 -47 -104 -56 -259
-61 l-138 -5 0 339 c0 187 3 343 8 348 4 4 63 5 132 2 93 -4 139 -10 181 -26z"/>
<path d="M6984 5581 c-2 -2 -4 -62 -4 -133 l0 -128 -50 0 c-27 0 -50 -3 -51
-7 -1 -13 -1 -137 0 -155 1 -15 10 -18 51 -18 l50 0 0 -228 c0 -256 8 -301 63
-374 21 -27 56 -55 96 -75 55 -29 72 -33 139 -33 65 0 87 5 137 29 33 16 71
39 85 50 l25 20 -40 81 c-22 45 -44 84 -48 87 -5 3 -19 -5 -32 -17 -29 -28
-81 -39 -118 -27 -51 17 -57 45 -57 277 l0 210 105 0 105 0 1 25 c0 14 1 45 1
70 0 92 10 84 -104 87 l-103 3 -3 128 c-1 70 -6 127 -10 128 -25 3 -234 3
-238 0z"/>
<path d="M7963 5329 c-28 -5 -78 -21 -110 -36 -32 -15 -67 -26 -78 -26 -11 1
-14 -1 -7 -3 7 -4 -8 -26 -42 -59 -66 -65 -113 -157 -128 -248 -6 -37 -16 -67
-22 -67 -8 0 -8 -2 0 -8 6 -4 16 -37 22 -75 15 -93 52 -168 117 -236 30 -32
52 -60 49 -63 -3 -3 1 -6 8 -5 7 1 44 -14 82 -33 63 -30 80 -34 176 -38 114
-5 191 10 258 49 18 10 40 19 49 19 9 0 14 2 11 5 -2 3 19 29 48 59 74 76 114
160 127 267 2 20 7 42 11 47 3 6 3 13 -2 16 -4 2 -9 19 -10 38 -14 185 -166
352 -359 393 -75 16 -122 17 -200 4z m186 -229 c78 -39 121 -118 121 -220 0
-152 -98 -251 -235 -237 -68 7 -114 34 -149 88 -82 123 -41 316 77 370 56 25
137 25 186 -1z"/>
<path d="M9147 5329 c-53 -13 -112 -44 -157 -86 l-40 -35 0 56 0 56 -125 0
-125 0 0 -440 0 -440 124 0 124 0 4 243 c3 228 4 245 26 292 42 92 92 125 190
125 l42 0 0 120 c0 90 -3 120 -12 119 -7 -1 -30 -5 -51 -10z"/>
<path d="M9681 5330 c-74 -16 -168 -66 -226 -121 -96 -91 -144 -229 -130 -372
19 -200 129 -336 314 -391 62 -18 202 -21 270 -5 60 13 144 56 189 95 l37 32
-25 29 c-13 15 -45 49 -69 75 -45 48 -45 48 -66 28 -68 -63 -211 -83 -299 -41
-47 23 -88 67 -101 109 l-6 22 321 0 322 0 -4 118 c-6 149 -28 213 -105 293
-29 31 -50 59 -45 64 4 5 1 5 -6 1 -7 -4 -24 0 -38 9 -73 47 -239 75 -333 55z
m179 -222 c50 -26 77 -59 86 -105 l7 -33 -187 0 c-204 0 -202 -1 -171 60 45
87 173 125 265 78z"/>
</g>
</svg>
